Coordinates
version=1
nRows=8
nColumns=34
inDegrees=yes

Units are S.I. units (second, meters, Newtons, ...)
If the header above contains a line with 'inDegrees', this indicates whether rotational values are in degrees (yes) or radians (no).

endheader
time	pelvis_tilt	pelvis_list	pelvis_rotation	pelvis_tx	pelvis_ty	pelvis_tz	hip_flexion_r	hip_adduction_r	hip_rotation_r	knee_angle_r	ankle_angle_r	subtalar_angle_r	mtp_angle_r	hip_flexion_l	hip_adduction_l	hip_rotation_l	knee_angle_l	ankle_angle_l	subtalar_angle_l	mtp_angle_l	lumbar_extension	lumbar_bending	lumbar_rotation	arm_flex_r	arm_add_r	arm_rot_r	elbow_flex_r	pro_sup_r	arm_flex_l	arm_add_l	arm_rot_l	elbow_flex_l	pro_sup_l
      4.50000000	    -14.22053245	      0.09408719	     -3.09344163	      0.65566002	      0.70765019	     -0.02626192	     70.15906372	    -16.98668779	     -1.20397101	     83.67061304	     30.61980037	     -0.11964269	      0.00000000	     71.07505859	    -21.49154824	     -3.29012852	     84.18684775	     27.06417061	     -1.88265193	      0.00000000	    -39.97218726	     -0.48610851	      3.81469732	    103.08492300	    -16.31273551	     32.53556857	    119.37801943	    103.48105941	     96.22439205	    -18.72403338	     28.65270803	    124.38762365	     97.79659292
      4.51666670	    -14.21550123	      0.12895683	     -2.79016302	      0.65520884	      0.71413355	     -0.02683129	     69.23558882	    -16.86509014	     -1.53158191	     82.23997258	     29.62732502	     -1.00898268	      0.00000000	     70.24787542	    -21.28676319	     -3.88410576	     82.59386085	     25.86518284	     -2.25561231	      0.00000000	    -40.58264180	     -0.46569744	      3.74876116	    101.22735747	    -16.66414641	     34.32617062	    118.82300345	    103.66938069	     92.98982691	    -19.18708063	     28.64091006	    125.04870937	     98.19530735
      4.53333330	    -13.98452236	      0.15027690	     -2.50306066	      0.65224594	      0.71966493	     -0.02628376	     68.16367980	    -16.78379454	     -1.84118397	     80.84158723	     29.31518485	     -0.83422643	      0.00000000	     69.21007179	    -21.07593179	     -4.37232171	     80.99032058	     25.34368248	     -2.09670270	      0.00000000	    -41.05996975	     -0.39101398	      3.73162691	     99.40536468	    -16.89252466	     35.97434747	    116.79608129	    103.75158525	     90.64474802	    -19.39801313	     29.26698721	    124.50742192	     98.46910519
      4.55000000	    -13.69519613	      0.06684732	     -2.29095080	      0.65298190	      0.73104881	     -0.02523532	     66.53098011	    -16.67047512	     -2.43170721	     78.97077104	     28.60509899	     -1.17260848	      0.00000000	     67.66263638	    -21.02574806	     -4.92750185	     78.93582958	     24.66695310	     -1.86130658	      0.00000000	    -41.36674798	     -0.35001102	      3.49000546	     96.55251251	    -17.43022922	     38.08110765	    115.01921479	    103.77521096	     87.74367722	    -19.88185060	     30.09217613	    123.11769614	     98.64734149
      4.56666670	    -13.64860283	     -0.05524607	     -2.22722189	      0.65258456	      0.73810733	     -0.02462348	     65.14228221	    -16.42986558	     -3.08664317	     77.07473910	     27.93486435	     -1.11012468	      0.00000000	     66.31587376	    -21.02209809	     -5.46023109	     76.91653418	     24.60815923	     -1.24211567	      0.00000000	    -41.21377040	     -0.57550721	      2.85583063	     93.48007333	    -17.62793486	     40.38384839	    114.28334068	    103.67418047	     84.55780112	    -20.75807925	     30.09599582	    120.65152850	     98.66480688
      4.58333330	    -13.54997670	     -0.36012711	     -2.30603621	      0.65148485	      0.74874756	     -0.02424562	     63.50430844	    -16.08599313	     -4.07882253	     74.81068033	     26.97029135	     -1.37693460	      0.00000000	     64.78726760	    -21.21154165	     -5.96542990	     74.71459753	     23.92380291	     -0.83993345	      0.00000000	    -40.85714517	     -0.80862454	      2.42205144	     89.96192019	    -17.80186580	     41.98465338	    111.62749763	    103.47100656	     81.35117543	    -20.36903143	     30.13209297	    116.90247354	     98.44024794
      4.60000000	    -13.81272233	     -0.61284431	     -2.33307880	      0.64995845	      0.75853480	     -0.02209558	     62.39091127	    -15.75830466	     -5.11897939	     72.61646877	     25.36898791	     -2.05761767	      0.00000000	     63.67681498	    -21.40676584	     -6.56163497	     72.37678958	     23.25485784	     -0.27212068	      0.00000000	    -40.14410553	     -1.08106894	      2.95564856	     86.45302464	    -19.13492414	     43.35164428	    106.84320146	    102.66293691	     76.03894102	    -18.80416583	     28.20715917	    112.13005190	     97.63982811
      4.61666670	    -13.92484260	     -0.66934594	     -2.17687933	      0.65441575	      0.76858386	     -0.02289711	     60.88731563	    -15.62787316	     -5.90756425	     70.18480442	     24.10947278	     -2.38817934	      0.00000000	     61.94981883	    -21.35230496	     -7.45683655	     69.74369516	     22.71804984	      0.28013223	      0.00000000	    -39.29278272	     -1.13149851	      3.63724898	     82.01621656	    -21.62471774	     44.75711611	    103.31590387	    102.03795198	     69.70336310	    -17.30107393	     26.24332341	    108.70264585	     96.98171228
